<svg width="60" height="60" viewBox="0 0 60 60" fill="none" xmlns="http://www.w3.org/2000/svg">
<rect width="60" height="60" rx="8" fill="white"/>
<circle cx="29.9953" cy="30.0031" r="22.8" fill="#9AC004"/>
<path fill-rule="evenodd" clip-rule="evenodd" d="M30 16.1399L16.1399 30L30 43.8601L43.8601 30L30 16.1399ZM13 30L30 47L47 30L30 13L13 30Z" fill="white"/>
<path d="M29.4026 34.6654H30.5693V33.832C31.1248 33.732 31.6026 33.5154 32.0026 33.182C32.4026 32.8487 32.6026 32.3543 32.6026 31.6987C32.6026 31.232 32.4693 30.8043 32.2026 30.4154C31.9359 30.0265 31.4026 29.6876 30.6026 29.3987C29.9359 29.1765 29.4748 28.982 29.2193 28.8154C28.9637 28.6487 28.8359 28.4209 28.8359 28.132C28.8359 27.8431 28.9387 27.6154 29.1443 27.4487C29.3498 27.282 29.647 27.1987 30.0359 27.1987C30.3915 27.1987 30.6693 27.2848 30.8693 27.457C31.0693 27.6293 31.2137 27.8431 31.3026 28.0987L32.3693 27.6654C32.247 27.2765 32.022 26.9376 31.6943 26.6487C31.3665 26.3598 31.0026 26.1987 30.6026 26.1654V25.332H29.4359V26.1654C28.8804 26.2876 28.447 26.532 28.1359 26.8987C27.8248 27.2654 27.6693 27.6765 27.6693 28.132C27.6693 28.6543 27.822 29.0765 28.1276 29.3987C28.4332 29.7209 28.9137 29.9987 29.5693 30.232C30.2693 30.4876 30.7554 30.7154 31.0276 30.9154C31.2998 31.1154 31.4359 31.3765 31.4359 31.6987C31.4359 32.0654 31.3054 32.3348 31.0443 32.507C30.7832 32.6793 30.4693 32.7654 30.1026 32.7654C29.7359 32.7654 29.4109 32.6515 29.1276 32.4237C28.8443 32.1959 28.6359 31.8543 28.5026 31.3987L27.4026 31.832C27.5582 32.3654 27.7998 32.7959 28.1276 33.1237C28.4554 33.4515 28.8804 33.6765 29.4026 33.7987V34.6654ZM30.0026 36.6654C29.0804 36.6654 28.2137 36.4904 27.4026 36.1404C26.5915 35.7904 25.8859 35.3154 25.2859 34.7154C24.6859 34.1154 24.2109 33.4098 23.8609 32.5987C23.5109 31.7876 23.3359 30.9209 23.3359 29.9987C23.3359 29.0765 23.5109 28.2098 23.8609 27.3987C24.2109 26.5876 24.6859 25.882 25.2859 25.282C25.8859 24.682 26.5915 24.207 27.4026 23.857C28.2137 23.507 29.0804 23.332 30.0026 23.332C30.9248 23.332 31.7915 23.507 32.6026 23.857C33.4137 24.207 34.1193 24.682 34.7193 25.282C35.3193 25.882 35.7943 26.5876 36.1443 27.3987C36.4943 28.2098 36.6693 29.0765 36.6693 29.9987C36.6693 30.9209 36.4943 31.7876 36.1443 32.5987C35.7943 33.4098 35.3193 34.1154 34.7193 34.7154C34.1193 35.3154 33.4137 35.7904 32.6026 36.1404C31.7915 36.4904 30.9248 36.6654 30.0026 36.6654ZM30.0026 35.332C31.4915 35.332 32.7526 34.8154 33.7859 33.782C34.8193 32.7487 35.3359 31.4876 35.3359 29.9987C35.3359 28.5098 34.8193 27.2487 33.7859 26.2154C32.7526 25.182 31.4915 24.6654 30.0026 24.6654C28.5137 24.6654 27.2526 25.182 26.2193 26.2154C25.1859 27.2487 24.6693 28.5098 24.6693 29.9987C24.6693 31.4876 25.1859 32.7487 26.2193 33.782C27.2526 34.8154 28.5137 35.332 30.0026 35.332Z" fill="white"/>
</svg>
