<svg width="60" height="60" viewBox="0 0 60 60" fill="none" xmlns="http://www.w3.org/2000/svg">
<rect width="60" height="60" rx="8" fill="white"/>
<circle cx="29.9953" cy="30.0031" r="22.8" fill="#894CD8"/>
<path fill-rule="evenodd" clip-rule="evenodd" d="M30 16.1399L16.1399 30L30 43.8601L43.8601 30L30 16.1399ZM13 30L30 47L47 30L30 13L13 30Z" fill="white"/>
<path d="M24.6615 35.5C24.2948 35.5 23.9809 35.3694 23.7198 35.1083C23.4587 34.8472 23.3281 34.5333 23.3281 34.1667V26.8333C23.3281 26.4667 23.4587 26.1528 23.7198 25.8917C23.9809 25.6306 24.2948 25.5 24.6615 25.5H27.3281V24.8333C27.3281 24.4667 27.4587 24.1528 27.7198 23.8917C27.9809 23.6306 28.2948 23.5 28.6615 23.5H31.3281C31.6948 23.5 32.0087 23.6306 32.2698 23.8917C32.5309 24.1528 32.6615 24.4667 32.6615 24.8333V25.5H35.3281C35.6948 25.5 36.0087 25.6306 36.2698 25.8917C36.5309 26.1528 36.6615 26.4667 36.6615 26.8333V34.1667C36.6615 34.5333 36.5309 34.8472 36.2698 35.1083C36.0087 35.3694 35.6948 35.5 35.3281 35.5H24.6615ZM28.6615 25.5H31.3281V24.8333H28.6615V25.5ZM35.3281 31.5H31.9948V32.8333H27.9948V31.5H24.6615V34.1667H35.3281V31.5ZM29.3281 31.5H30.6615V30.1667H29.3281V31.5ZM24.6615 30.1667H27.9948V28.8333H31.9948V30.1667H35.3281V26.8333H24.6615V30.1667Z" fill="white"/>
</svg>
