<svg width="60" height="60" viewBox="0 0 60 60" fill="none" xmlns="http://www.w3.org/2000/svg">
<rect width="60" height="60" rx="8" fill="white"/>
<circle cx="29.9953" cy="30.0031" r="22.8" fill="#5C86E1"/>
<path fill-rule="evenodd" clip-rule="evenodd" d="M30 16.1399L16.1399 30L30 43.8601L43.8601 30L30 16.1399ZM13 30L30 47L47 30L30 13L13 30Z" fill="white"/>
<g clip-path="url(#clip0_2279_11398)">
<path d="M31 25.6667C31.7333 25.6667 32.3333 25.0667 32.3333 24.3333C32.3333 23.6 31.7333 23 31 23C30.2667 23 29.6667 23.6 29.6667 24.3333C29.6667 25.0667 30.2667 25.6667 31 25.6667ZM28.5333 27.9333L26.6667 37.3333H28.0667L29.2667 32L30.6667 33.3333V37.3333H32V32.3333L30.6 31L31 29C31.8667 30 33.2 30.6667 34.6667 30.6667V29.3333C33.4 29.3333 32.3333 28.6667 31.8 27.7333L31.1333 26.6667C30.8667 26.2667 30.4667 26 30 26C29.8 26 29.6667 26.0667 29.4667 26.0667L26 27.5333V30.6667H27.3333V28.4L28.5333 27.9333Z" fill="white"/>
</g>
<defs>
<clipPath id="clip0_2279_11398">
<rect width="16" height="16" fill="white" transform="translate(22 22)"/>
</clipPath>
</defs>
</svg>
