<svg width="638" height="638" viewBox="0 0 638 638" fill="none" xmlns="http://www.w3.org/2000/svg">
<rect y="16" width="200" height="510" rx="75" fill="#ECB844"/>
<rect x="32" y="16" width="200" height="510" rx="75" fill="#EC8044"/>
<rect x="64" y="16" width="200" height="510" rx="75" fill="#EC4444"/>
<rect x="96" y="16" width="200" height="510" rx="75" fill="#B754F3"/>
<mask id="path-5-inside-1_848_271" fill="white">
<path fill-rule="evenodd" clip-rule="evenodd" d="M212 16C165.608 16 128 53.6081 128 100V442C128 488.392 165.608 526 212 526H430.731L435.666 585.121C438.162 615.023 470.65 633.274 482.319 611.329L527.692 526H554C600.392 526 638 488.392 638 442V100C638 53.6081 600.392 16 554 16H212Z"/>
</mask>
<path fill-rule="evenodd" clip-rule="evenodd" d="M212 16C165.608 16 128 53.6081 128 100V442C128 488.392 165.608 526 212 526H430.731L435.666 585.121C438.162 615.023 470.65 633.274 482.319 611.329L527.692 526H554C600.392 526 638 488.392 638 442V100C638 53.6081 600.392 16 554 16H212Z" fill="white"/>
<path d="M430.731 526L462.62 523.338L460.171 494H430.731V526ZM435.666 585.121L403.777 587.783L435.666 585.121ZM482.319 611.329L510.573 626.353V626.353L482.319 611.329ZM527.692 526V494H508.465L499.438 510.976L527.692 526ZM160 100C160 71.2812 183.281 48 212 48V-16C147.935 -16 96 35.935 96 100H160ZM160 442V100H96V442H160ZM212 494C183.281 494 160 470.719 160 442H96C96 506.065 147.935 558 212 558V494ZM430.731 494H212V558H430.731V494ZM467.555 582.459L462.62 523.338L398.842 528.662L403.777 587.783L467.555 582.459ZM454.065 596.306C454.505 595.478 455.562 593.897 457.583 592.345C459.641 590.766 462.039 589.729 464.422 589.272C466.711 588.832 468.517 589.009 469.604 589.235C470.671 589.457 471.194 589.75 471.226 589.768C471.272 589.794 471.032 589.663 470.621 589.268C470.218 588.881 469.748 588.333 469.293 587.625C468.38 586.204 467.721 584.442 467.555 582.459L403.777 587.783C405.907 613.305 420.719 634.803 439.88 645.567C449.571 651.011 462.498 654.811 476.494 652.123C491.577 649.226 503.535 639.589 510.573 626.353L454.065 596.306ZM499.438 510.976L454.065 596.306L510.573 626.353L555.946 541.024L499.438 510.976ZM554 494H527.692V558H554V494ZM606 442C606 470.719 582.719 494 554 494V558C618.065 558 670 506.065 670 442H606ZM606 100V442H670V100H606ZM554 48C582.719 48 606 71.2812 606 100H670C670 35.935 618.065 -16 554 -16V48ZM212 48H554V-16H212V48Z" fill="black" mask="url(#path-5-inside-1_848_271)"/>
<mask id="path-7-outside-2_848_271" maskUnits="userSpaceOnUse" x="216" y="96" width="342" height="375" fill="black">
<rect fill="white" x="216" y="96" width="342" height="375"/>
<path fill-rule="evenodd" clip-rule="evenodd" d="M438.457 175.843C423.33 175.843 410.988 163.519 410.988 148.42C410.988 133.256 423.33 121 438.457 121C453.584 121 465.93 133.256 465.93 148.423C465.93 163.519 453.584 175.843 438.457 175.843ZM258.64 357.435H311.753V305.436C311.753 305.402 311.719 305.384 311.684 305.367C311.65 305.35 311.616 305.333 311.616 305.299C311.616 305.231 311.599 305.146 311.582 305.062C311.565 304.977 311.548 304.893 311.548 304.825C311.548 304.282 311.548 303.742 311.616 303.2V303.2C311.616 302.998 311.616 302.793 311.684 302.589C311.753 302.046 311.886 301.506 312.023 300.964C312.023 300.895 312.04 300.828 312.057 300.761C312.074 300.693 312.091 300.626 312.091 300.557C312.293 299.813 312.567 299.134 312.837 298.526V298.458C313.096 297.873 313.42 297.291 313.744 296.709L313.788 296.632C313.822 296.597 313.839 296.648 313.856 296.699C313.873 296.75 313.89 296.8 313.924 296.768L361.268 218.298H340.648C334 220.397 319.417 241.249 309.581 260.953C305.173 269.621 294.66 272.939 285.908 268.604C277.225 264.272 273.698 253.641 278.038 244.973C278.068 244.919 278.15 244.762 278.28 244.511C279.621 241.92 286.147 229.312 294.93 216.536C310.802 193.312 324.978 182.48 339.561 182.48H417.024C425.027 182.48 432.082 187.556 434.049 195.343C440.153 219.243 450.126 245.718 456.094 252.016H487.363C492.893 252.016 497.814 254.664 501.043 258.718C505.246 256.053 506.48 252.011 507.171 248.366C507.312 247.646 507.427 246.945 507.537 246.275L507.538 246.273L507.538 246.272C507.73 245.104 507.906 244.03 508.178 243.116C508.548 241.991 509.085 240.605 510.96 240.44C513.146 240.273 514.816 240.682 515.986 241.606C517.137 242.553 517.701 243.958 517.868 245.6C518.059 247.705 517.597 250.262 516.781 253.018C525.807 253.426 533 260.873 533 270C533 279.389 525.389 287 516 287C510.244 287 505.155 284.139 502.08 279.761C498.928 284.617 493.523 287.902 487.363 287.902H452.226C435.335 287.902 424.483 271.584 416.343 252.897L387.041 301.24C434.252 339.454 434.251 351.881 434.251 358.061V358.114V428.395C434.251 438.077 427.062 446 417.359 446C407.657 446 400.468 438.077 400.468 428.395V361.091C394.093 354.39 376.931 338.478 358.142 323.717H347.629V375.716C347.629 385.398 338.744 393.253 328.976 393.253H258.637C248.869 393.253 241 385.06 241 375.378C241.003 365.628 248.873 357.435 258.64 357.435Z"/>
</mask>
<path fill-rule="evenodd" clip-rule="evenodd" d="M438.457 175.843C423.33 175.843 410.988 163.519 410.988 148.42C410.988 133.256 423.33 121 438.457 121C453.584 121 465.93 133.256 465.93 148.423C465.93 163.519 453.584 175.843 438.457 175.843ZM258.64 357.435H311.753V305.436C311.753 305.402 311.719 305.384 311.684 305.367C311.65 305.35 311.616 305.333 311.616 305.299C311.616 305.231 311.599 305.146 311.582 305.062C311.565 304.977 311.548 304.893 311.548 304.825C311.548 304.282 311.548 303.742 311.616 303.2V303.2C311.616 302.998 311.616 302.793 311.684 302.589C311.753 302.046 311.886 301.506 312.023 300.964C312.023 300.895 312.04 300.828 312.057 300.761C312.074 300.693 312.091 300.626 312.091 300.557C312.293 299.813 312.567 299.134 312.837 298.526V298.458C313.096 297.873 313.42 297.291 313.744 296.709L313.788 296.632C313.822 296.597 313.839 296.648 313.856 296.699C313.873 296.75 313.89 296.8 313.924 296.768L361.268 218.298H340.648C334 220.397 319.417 241.249 309.581 260.953C305.173 269.621 294.66 272.939 285.908 268.604C277.225 264.272 273.698 253.641 278.038 244.973C278.068 244.919 278.15 244.762 278.28 244.511C279.621 241.92 286.147 229.312 294.93 216.536C310.802 193.312 324.978 182.48 339.561 182.48H417.024C425.027 182.48 432.082 187.556 434.049 195.343C440.153 219.243 450.126 245.718 456.094 252.016H487.363C492.893 252.016 497.814 254.664 501.043 258.718C505.246 256.053 506.48 252.011 507.171 248.366C507.312 247.646 507.427 246.945 507.537 246.275L507.538 246.273L507.538 246.272C507.73 245.104 507.906 244.03 508.178 243.116C508.548 241.991 509.085 240.605 510.96 240.44C513.146 240.273 514.816 240.682 515.986 241.606C517.137 242.553 517.701 243.958 517.868 245.6C518.059 247.705 517.597 250.262 516.781 253.018C525.807 253.426 533 260.873 533 270C533 279.389 525.389 287 516 287C510.244 287 505.155 284.139 502.08 279.761C498.928 284.617 493.523 287.902 487.363 287.902H452.226C435.335 287.902 424.483 271.584 416.343 252.897L387.041 301.24C434.252 339.454 434.251 351.881 434.251 358.061V358.114V428.395C434.251 438.077 427.062 446 417.359 446C407.657 446 400.468 438.077 400.468 428.395V361.091C394.093 354.39 376.931 338.478 358.142 323.717H347.629V375.716C347.629 385.398 338.744 393.253 328.976 393.253H258.637C248.869 393.253 241 385.06 241 375.378C241.003 365.628 248.873 357.435 258.64 357.435Z" fill="black"/>
<path d="M311.753 357.435V382.435H336.753V357.435H311.753ZM311.616 303.2L336.42 306.324L336.616 304.768V303.2H311.616ZM311.684 302.589L335.397 310.507L336.18 308.164L336.488 305.714L311.684 302.589ZM312.023 300.964L336.265 307.072L337.023 304.065V300.964H312.023ZM312.057 300.761L336.291 306.903L336.291 306.901L312.057 300.761ZM312.091 300.557L287.963 294.013L287.091 297.227V300.557H312.091ZM312.837 298.526L335.68 308.684L337.837 303.834V298.526H312.837ZM312.837 298.458L289.973 288.346L287.837 293.176V298.458H312.837ZM313.744 296.709L335.581 308.881L335.583 308.878L313.744 296.709ZM313.788 296.632L296.128 278.936L293.652 281.407L291.949 284.462L313.788 296.632ZM313.856 296.699L290.162 304.674L290.163 304.675L313.856 296.699ZM313.924 296.768L331.152 314.884L333.591 312.565L335.33 309.683L313.924 296.768ZM361.268 218.298L382.673 231.212L405.548 193.298H361.268V218.298ZM340.648 218.298V193.298H336.795L333.12 194.458L340.648 218.298ZM309.581 260.953L331.865 272.287L331.907 272.203L331.949 272.119L309.581 260.953ZM285.908 268.604L274.747 290.974L274.779 290.99L274.81 291.006L285.908 268.604ZM278.038 244.973L256.171 232.856L255.918 233.313L255.684 233.78L278.038 244.973ZM278.28 244.511L300.482 256.003L300.482 256.003L278.28 244.511ZM294.93 216.536L315.531 230.699L315.551 230.671L315.57 230.642L294.93 216.536ZM434.049 195.343L409.81 201.464L409.818 201.497L409.826 201.53L434.049 195.343ZM456.094 252.016L437.947 269.211L445.342 277.016H456.094V252.016ZM501.043 258.718L481.489 274.295L495.475 291.851L514.431 279.831L501.043 258.718ZM507.171 248.366L482.639 243.549L482.624 243.628L482.609 243.707L507.171 248.366ZM507.537 246.275L482.932 241.851L482.899 242.037L482.868 242.223L507.537 246.275ZM507.538 246.273L482.941 241.8L482.937 241.825L482.932 241.849L507.538 246.273ZM507.538 246.272L532.135 250.744L532.173 250.535L532.207 250.324L507.538 246.272ZM508.178 243.116L484.43 235.306L484.319 235.642L484.218 235.981L508.178 243.116ZM510.96 240.44L509.047 215.514L508.91 215.524L508.774 215.536L510.96 240.44ZM515.986 241.606L531.86 222.293L531.671 222.138L531.479 221.986L515.986 241.606ZM517.868 245.6L542.767 243.352L542.754 243.207L542.739 243.063L517.868 245.6ZM516.781 253.018L492.809 245.92L483.74 276.55L515.652 277.992L516.781 253.018ZM502.08 279.761L522.536 265.39L501.263 235.11L481.112 266.147L502.08 279.761ZM416.343 252.897L439.264 242.913L419.987 198.656L394.964 239.938L416.343 252.897ZM387.041 301.24L365.662 288.281L354.35 306.943L371.312 320.672L387.041 301.24ZM434.251 358.061L409.251 358.06V358.061H434.251ZM400.468 361.091H425.468V351.1L418.581 343.86L400.468 361.091ZM358.142 323.717L373.586 304.058L366.788 298.717H358.142V323.717ZM347.629 323.717V298.717H322.629V323.717H347.629ZM241 375.378L216 375.37V375.378H241ZM385.988 148.42C385.988 177.365 409.562 200.843 438.457 200.843V150.843C437.817 150.843 437.219 150.607 436.713 150.102C436.207 149.597 435.988 149.019 435.988 148.42H385.988ZM438.457 96C409.605 96 385.988 119.367 385.988 148.42H435.988C435.988 147.144 437.056 146 438.457 146V96ZM490.93 148.423C490.93 119.366 467.308 96 438.457 96V146C439.86 146 440.93 147.146 440.93 148.423H490.93ZM438.457 200.843C467.346 200.843 490.93 177.371 490.93 148.423H440.93C440.93 149.017 440.712 149.594 440.205 150.1C439.697 150.607 439.097 150.843 438.457 150.843V200.843ZM311.753 332.435H258.64V382.435H311.753V332.435ZM286.753 305.436V357.435H336.753V305.436H286.753ZM300.522 327.737C301.247 328.099 298.403 326.827 295.744 324.615C292.265 321.721 286.753 315.315 286.753 305.436H336.753C336.753 295.522 331.224 289.091 327.718 286.175C326.122 284.847 324.704 284.009 324.017 283.62C323.635 283.404 323.322 283.24 323.141 283.147C323.047 283.098 322.97 283.06 322.923 283.036C322.899 283.024 322.88 283.014 322.868 283.008C322.861 283.005 322.856 283.002 322.853 283.001C322.85 282.999 322.847 282.998 322.847 282.998L300.522 327.737ZM286.616 305.299C286.616 315.211 292.143 321.643 295.65 324.56C297.247 325.888 298.665 326.726 299.352 327.115C299.734 327.331 300.047 327.495 300.228 327.588C300.322 327.637 300.399 327.675 300.446 327.699C300.47 327.711 300.489 327.721 300.501 327.727C300.508 327.73 300.513 327.732 300.516 327.734C300.519 327.736 300.522 327.737 300.522 327.737L322.847 282.998C322.121 282.636 324.965 283.908 327.625 286.12C331.106 289.015 336.616 295.421 336.616 305.299H286.616ZM287.078 310.02C287.108 310.169 287.007 309.688 286.917 309.123C286.834 308.6 286.616 307.165 286.616 305.299H336.616C336.616 303.365 336.39 301.853 336.294 301.251C336.235 300.882 336.179 300.584 336.146 300.411C336.128 300.32 336.113 300.245 336.104 300.196C336.095 300.15 336.086 300.11 336.085 300.104L287.078 310.02ZM286.548 304.825C286.548 306.758 286.774 308.27 286.87 308.873C286.929 309.241 286.984 309.539 287.018 309.712C287.035 309.803 287.05 309.879 287.06 309.928C287.069 309.973 287.077 310.014 287.078 310.02L336.085 300.104C336.055 299.955 336.156 300.436 336.247 301.002C336.33 301.524 336.548 302.959 336.548 304.825H286.548ZM286.812 300.075C286.516 302.429 286.548 304.531 286.548 304.825H336.548C336.548 304.673 336.548 304.636 336.548 304.616C336.548 304.607 336.548 304.68 336.544 304.802C336.536 305.04 336.512 305.591 336.42 306.324L286.812 300.075ZM286.616 303.2V303.2H336.616V303.2H286.616ZM287.972 294.67C287.138 297.167 286.835 299.334 286.712 300.807C286.651 301.534 286.631 302.134 286.623 302.522C286.615 302.879 286.616 303.192 286.616 303.2H336.616C336.616 302.932 336.63 303.872 336.537 304.984C336.431 306.253 336.163 308.215 335.397 310.507L287.972 294.67ZM287.781 294.856C287.686 295.232 287.167 297.19 286.88 299.464L336.488 305.714C336.401 306.405 336.297 306.905 336.254 307.104C336.217 307.273 336.193 307.36 336.265 307.072L287.781 294.856ZM287.823 294.619C287.823 294.619 287.809 294.673 287.794 294.735C287.777 294.802 287.751 294.907 287.721 295.036C287.661 295.287 287.567 295.698 287.471 296.207C287.282 297.203 287.023 298.877 287.023 300.964H337.023C337.023 302.983 336.772 304.589 336.596 305.517C336.437 306.358 336.25 307.066 336.291 306.903L287.823 294.619ZM287.091 300.557C287.091 298.538 287.342 296.932 287.518 296.005C287.677 295.164 287.864 294.457 287.823 294.62L336.291 306.901C336.291 306.901 336.305 306.846 336.321 306.785C336.337 306.718 336.363 306.613 336.394 306.484C336.453 306.233 336.547 305.823 336.644 305.314C336.832 304.319 337.091 302.645 337.091 300.557H287.091ZM289.993 288.369C289.476 289.532 288.639 291.52 287.963 294.013L336.22 307.102C335.947 308.106 335.657 308.736 335.68 308.684L289.993 288.369ZM287.837 298.458V298.526H337.837V298.458H287.837ZM291.908 284.537C291.694 284.92 290.78 286.521 289.973 288.346L335.7 308.57C335.605 308.786 335.524 308.954 335.47 309.065C335.415 309.176 335.378 309.246 335.369 309.264C335.36 309.28 335.369 309.264 335.406 309.196C335.447 309.121 335.495 309.036 335.581 308.881L291.908 284.537ZM291.949 284.462L291.906 284.54L335.583 308.878L335.626 308.801L291.949 284.462ZM337.55 288.724C337.55 288.724 337.549 288.721 337.548 288.717C337.546 288.713 337.544 288.708 337.542 288.701C337.538 288.687 337.53 288.666 337.521 288.64C337.504 288.589 337.475 288.504 337.439 288.4C337.371 288.207 337.24 287.841 337.06 287.389C336.836 286.828 335.923 284.52 334.079 281.974C332.549 279.86 327.036 272.936 316.571 271.773C305.608 270.555 298.477 276.592 296.128 278.936L331.448 314.327C329.116 316.654 321.999 322.684 311.05 321.468C300.599 320.306 295.097 313.392 293.578 311.293C291.745 308.761 290.841 306.473 290.626 305.935C290.326 305.183 290.106 304.507 290.162 304.674L337.55 288.724ZM296.696 278.652C299.335 276.142 306.714 270.428 317.592 272.052C327.62 273.549 332.817 280.253 334.248 282.262C336.004 284.728 336.878 286.942 337.094 287.483C337.388 288.222 337.604 288.885 337.55 288.723L290.163 304.675C290.163 304.676 290.164 304.679 290.165 304.682C290.166 304.686 290.168 304.692 290.171 304.698C290.175 304.712 290.182 304.733 290.191 304.759C290.208 304.809 290.237 304.892 290.272 304.995C290.339 305.185 290.468 305.545 290.645 305.989C290.869 306.552 291.753 308.786 293.52 311.267C294.962 313.291 300.17 320.005 310.211 321.504C321.103 323.13 328.497 317.41 331.152 314.884L296.696 278.652ZM339.862 205.383L292.519 283.853L335.33 309.683L382.673 231.212L339.862 205.383ZM340.648 243.298H361.268V193.298H340.648V243.298ZM331.949 272.119C336.314 263.376 341.738 254.393 346.61 247.615C349.068 244.196 351.057 241.797 352.407 240.391C353.083 239.687 353.287 239.559 353.035 239.753C353.023 239.762 351.309 241.148 348.177 242.137L333.12 194.458C324.85 197.069 318.881 203.115 316.338 205.764C312.776 209.474 309.259 213.913 306.01 218.432C299.47 227.531 292.685 238.827 287.213 249.788L331.949 272.119ZM274.81 291.006C295.432 301.222 321.038 293.573 331.865 272.287L287.298 249.62C289.307 245.669 293.887 244.657 297.005 246.202L274.81 291.006ZM255.684 233.78C245.173 254.772 253.662 280.455 274.747 290.974L297.069 246.233C300.787 248.088 302.224 252.51 300.393 256.166L255.684 233.78ZM256.077 233.019C256.044 233.083 256.018 233.135 255.995 233.179C255.971 233.224 255.957 233.252 255.948 233.268C255.944 233.276 255.944 233.278 255.945 233.274C255.947 233.271 255.954 233.258 255.965 233.238C255.974 233.219 255.995 233.18 256.023 233.128C256.037 233.101 256.057 233.065 256.08 233.023C256.102 232.982 256.133 232.924 256.171 232.856L299.906 257.091C300.041 256.847 300.148 256.643 300.176 256.59C300.223 256.502 300.265 256.421 300.295 256.364C300.353 256.252 300.423 256.117 300.482 256.003L256.077 233.019ZM274.328 202.373C264.626 216.487 257.518 230.236 256.077 233.019L300.482 256.003C301.723 253.605 307.668 242.137 315.531 230.699L274.328 202.373ZM339.561 157.48C311.466 157.48 290.744 178.355 274.29 202.43L315.57 230.642C330.861 208.269 338.49 207.48 339.561 207.48V157.48ZM417.024 157.48H339.561V207.48H417.024V157.48ZM458.288 189.222C453.299 169.469 435.559 157.48 417.024 157.48V207.48C414.495 207.48 410.865 205.644 409.81 201.464L458.288 189.222ZM474.241 234.821C475.463 236.11 475.077 236.138 473.353 232.689C471.953 229.888 470.274 226.026 468.453 221.296C464.818 211.859 461.092 200.201 458.271 189.156L409.826 201.53C413.11 214.385 417.422 227.915 421.793 239.264C423.973 244.927 426.288 250.359 428.627 255.04C430.643 259.074 433.741 264.773 437.947 269.211L474.241 234.821ZM487.363 227.016H456.094V277.016H487.363V227.016ZM520.598 243.141C513.016 233.623 501.112 227.016 487.363 227.016V277.016C484.673 277.016 482.612 275.704 481.489 274.295L520.598 243.141ZM482.609 243.707C482.421 244.699 482.473 243.881 483.166 242.527C483.553 241.769 484.13 240.852 484.956 239.92C485.792 238.975 486.722 238.197 487.656 237.605L514.431 279.831C527.722 271.403 530.709 258.424 531.733 253.024L482.609 243.707ZM482.868 242.223C482.75 242.943 482.694 243.27 482.639 243.549L531.703 253.182C531.93 252.022 532.105 250.947 532.207 250.326L482.868 242.223ZM482.932 241.849L482.932 241.851L532.143 250.698L532.143 250.696L482.932 241.849ZM482.941 241.8L482.941 241.8L532.135 250.745L532.135 250.744L482.941 241.8ZM484.218 235.981C483.402 238.723 482.987 241.5 482.869 242.22L532.207 250.324C532.232 250.175 532.252 250.051 532.272 249.931C532.292 249.814 532.308 249.716 532.323 249.631C532.337 249.546 532.349 249.481 532.358 249.431C532.367 249.381 532.372 249.352 532.374 249.339C532.377 249.327 532.375 249.337 532.369 249.365C532.363 249.393 532.352 249.446 532.335 249.518C532.318 249.591 532.294 249.689 532.262 249.81C532.231 249.93 532.19 250.079 532.139 250.251L484.218 235.981ZM508.774 215.536C500.991 216.219 494.241 219.974 489.644 225.602C485.99 230.074 484.602 234.782 484.43 235.306L531.927 250.926C532.125 250.325 531.19 253.777 528.366 257.234C526.741 259.223 524.498 261.256 521.558 262.825C518.621 264.392 515.693 265.121 513.146 265.345L508.774 215.536ZM531.479 221.986C523.712 215.853 514.995 215.057 509.047 215.514L512.873 265.367C511.296 265.488 505.919 265.512 500.492 261.227L531.479 221.986ZM542.739 243.063C542.166 237.444 539.81 228.828 531.86 222.293L500.111 260.92C494.463 256.277 493.236 250.471 492.997 248.137L542.739 243.063ZM540.752 260.116C541.856 256.386 543.385 250.199 542.767 243.352L492.97 247.848C492.896 247.035 492.905 246.401 492.925 245.995C492.946 245.586 492.984 245.321 492.998 245.227C493.022 245.073 493 245.276 492.809 245.92L540.752 260.116ZM515.652 277.992C511.385 277.799 508 274.302 508 270H558C558 247.444 540.23 229.052 517.909 228.043L515.652 277.992ZM508 270C508 265.582 511.582 262 516 262V312C539.196 312 558 293.196 558 270H508ZM516 262C518.73 262 521.132 263.391 522.536 265.39L481.624 294.133C489.179 304.887 501.758 312 516 312V262ZM487.363 312.902C502.697 312.902 515.684 304.717 523.048 293.375L481.112 266.147C482.171 264.516 484.349 262.902 487.363 262.902V312.902ZM452.226 312.902H487.363V262.902H452.226V312.902ZM393.423 262.88C397.871 273.09 403.923 284.8 412.518 294.239C421.484 304.085 434.659 312.902 452.226 312.902V262.902C452.218 262.902 452.294 262.943 452.129 262.858C451.821 262.699 450.908 262.135 449.488 260.575C446.399 257.183 442.956 251.39 439.264 242.913L393.423 262.88ZM408.42 314.199L437.723 265.855L394.964 239.938L365.662 288.281L408.42 314.199ZM459.251 358.063C459.251 356.009 459.282 351.255 457.585 345.202C455.961 339.406 453.127 333.626 449.006 327.581C441.059 315.923 427.036 301.45 402.77 281.808L371.312 320.672C394.257 339.244 403.839 350.092 407.693 355.745C409.474 358.357 409.59 359.23 409.441 358.697C409.22 357.907 409.251 357.023 409.251 358.06L459.251 358.063ZM459.251 358.114V358.061H409.251V358.114H459.251ZM459.251 428.395V358.114H409.251V428.395H459.251ZM417.359 471C442.224 471 459.251 450.488 459.251 428.395H409.251C409.251 427.011 409.787 425.232 411.257 423.674C412.818 422.019 415.108 421 417.359 421V471ZM375.468 428.395C375.468 450.488 392.494 471 417.359 471V421C419.61 421 421.9 422.019 423.461 423.674C424.931 425.232 425.468 427.011 425.468 428.395H375.468ZM375.468 361.091V428.395H425.468V361.091H375.468ZM342.698 343.376C360.752 357.56 376.977 372.669 382.355 378.322L418.581 343.86C411.209 336.111 393.111 319.396 373.586 304.058L342.698 343.376ZM347.629 348.717H358.142V298.717H347.629V348.717ZM372.629 375.716V323.717H322.629V375.716H372.629ZM328.976 418.253C350.602 418.253 372.629 401.076 372.629 375.716H322.629C322.629 372.649 324.05 370.628 325.018 369.736C325.925 368.9 327.225 368.253 328.976 368.253V418.253ZM258.637 418.253H328.976V368.253H258.637V418.253ZM216 375.378C216 398.351 234.552 418.253 258.637 418.253V368.253C263.187 368.253 266 371.769 266 375.378H216ZM258.64 332.435C234.493 332.435 216.008 352.399 216 375.37L266 375.387C265.999 378.857 263.253 382.435 258.64 382.435V332.435Z" fill="white" mask="url(#path-7-outside-2_848_271)"/>
</svg>
