<svg width="670" height="606" viewBox="0 0 670 606" fill="none" xmlns="http://www.w3.org/2000/svg">
<path d="M0 78C0 34.9218 34.9218 0 78 0H150C193.078 0 228 34.9218 228 78V432C228 475.078 193.078 510 150 510H78C34.9218 510 0 475.078 0 432V78Z" fill="#FF1F00"/>
<path fill-rule="evenodd" clip-rule="evenodd" d="M150 40H78C57.0132 40 40 57.0132 40 78V432C40 452.987 57.0132 470 78 470H150C170.987 470 188 452.987 188 432V78C188 57.0132 170.987 40 150 40ZM78 0C34.9218 0 0 34.9218 0 78V432C0 475.078 34.9218 510 78 510H150C193.078 510 228 475.078 228 432V78C228 34.9218 193.078 0 150 0H78Z" fill="black"/>
<path d="M80 78C80 34.9218 114.922 0 158 0H230C273.078 0 308 34.9218 308 78V432C308 475.078 273.078 510 230 510H158C114.922 510 80 475.078 80 432V78Z" fill="#F2CF17"/>
<path fill-rule="evenodd" clip-rule="evenodd" d="M230 40H158C137.013 40 120 57.0132 120 78V432C120 452.987 137.013 470 158 470H230C250.987 470 268 452.987 268 432V78C268 57.0132 250.987 40 230 40ZM158 0C114.922 0 80 34.9218 80 78V432C80 475.078 114.922 510 158 510H230C273.078 510 308 475.078 308 432V78C308 34.9218 273.078 0 230 0H158Z" fill="black"/>
<path d="M238 0C194.922 0 160 34.9218 160 78V432C160 475.078 194.922 510 238 510H413.181L407.621 561.005C404.396 590.578 436.7 617.631 453.116 599.105L532.068 510H592C635.078 510 670 475.078 670 432V78C670 34.9218 635.078 0 592 0H238Z" fill="white"/>
<path fill-rule="evenodd" clip-rule="evenodd" d="M457.779 470L449.881 542.44L514.068 470H592C612.987 470 630 452.987 630 432V78C630 57.0132 612.987 40 592 40H238C217.013 40 200 57.0132 200 78V432C200 452.987 217.013 470 238 470H457.779ZM407.621 561.005C404.396 590.578 436.7 617.631 453.116 599.105L532.068 510H592C635.078 510 670 475.078 670 432V78C670 34.9218 635.078 0 592 0H238C194.922 0 160 34.9218 160 78V432C160 475.078 194.922 510 238 510H413.181L407.621 561.005Z" fill="black"/>
<path d="M464.025 89.887C445.484 87.9382 428.881 101.382 426.932 119.923C424.983 138.463 438.428 155.066 456.97 157.014C475.511 158.963 492.114 145.519 494.062 126.979C496.011 108.438 482.566 91.8357 464.025 89.887Z" fill="black"/>
<path d="M520.022 272.232L470.103 266.985L470.088 266.997L445.399 231.974L417.371 283.215L473.406 323.379L463 414.405L423.431 414.405L430.667 342.559L375.972 303.337C357.196 288.51 352.005 263.504 362.898 243.297L384.234 203.678L363.706 201.521L337.078 247.71L301.997 227.476L341.773 158.481L429.942 167.747C443.489 169.171 455.764 176.366 463.621 187.494L492.623 228.631L524.255 231.955L520.022 272.232Z" fill="black"/>
<path d="M338.81 318.95L345.565 306.466C349.902 312.596 354.986 318.342 361.243 323.262L376.579 334.267L361.549 362.061L263.001 349.5L263 313.501L338.81 318.95Z" fill="black"/>
<path d="M550.993 225.11L548.399 234.483L568.465 236.592C573.214 237.091 576.659 241.346 576.16 246.095L569.222 269.815C568.001 273.989 563.969 276.693 559.643 276.238L526.983 272.806L531.201 232.675L539.494 219.702C540.394 218.32 541.787 217.333 543.39 216.943C544.993 216.553 546.684 216.789 548.119 217.604C549.365 218.356 550.325 219.504 550.845 220.863C551.366 222.223 551.418 223.718 550.993 225.11Z" fill="black"/>
</svg>
