<svg width="23" height="47" viewBox="0 0 23 47" fill="none" xmlns="http://www.w3.org/2000/svg">
<path d="M20.8101 16.5086C20.9269 16.7083 20.9883 16.935 20.9883 17.1657C20.9883 17.3963 20.9269 17.623 20.8101 17.8227L4.47461 44.3692C4.35153 44.5595 4.18262 44.7168 3.98298 44.8269C3.78334 44.9369 3.5592 44.9964 3.33059 45C3.12875 44.9938 2.93001 44.9492 2.74528 44.8686C2.45039 44.7259 2.21931 44.4806 2.09652 44.1797C1.97373 43.8789 1.9679 43.5438 2.08016 43.239L9.58278 22.6326L3.3572 22.7641C3.14271 22.7723 2.9297 22.7258 2.73865 22.6292C2.54761 22.5325 2.38497 22.3889 2.26639 22.2121C2.13411 22.0479 2.04737 21.8525 2.01472 21.6451C1.98206 21.4377 2.00462 21.2255 2.08016 21.0293L8.38556 2.89365C8.4774 2.63682 8.64626 2.41373 8.86964 2.25409C9.09303 2.09444 9.36035 2.00581 9.636 2H19.6661C19.8973 1.99938 20.1247 2.05831 20.3259 2.17099C20.527 2.28366 20.695 2.44619 20.8131 2.64254C20.9313 2.83888 20.9957 3.06227 20.9998 3.29067C21.0039 3.51907 20.9477 3.74459 20.8367 3.94499L14.1589 15.8252H19.6129C19.8578 15.8135 20.1009 15.8718 20.3132 15.9929C20.5255 16.1141 20.698 16.2931 20.8101 16.5086V16.5086Z" stroke="#ECB844" stroke-width="3.5"/>
</svg>
