<svg width="24" height="24" viewBox="0 0 24 24" fill="none" xmlns="http://www.w3.org/2000/svg">
<path d="M14 13V19C14 19.2833 13.9042 19.5208 13.7125 19.7125C13.5209 19.9042 13.2834 20 13 20H11C10.7167 20 10.4792 19.9042 10.2875 19.7125C10.0959 19.5208 10 19.2833 10 19V13L4.02503 5.375C3.7917 5.09167 3.75836 4.79167 3.92503 4.475C4.0917 4.15833 4.35003 4 4.70003 4H19.3C19.65 4 19.9084 4.15833 20.075 4.475C20.2417 4.79167 20.2084 5.09167 19.975 5.375L14 13ZM12 13.1L18 5.5H6.00003L12 13.1Z" fill="white"/>
</svg>
