<svg width="30" height="30" viewBox="0 0 30 30" fill="none" xmlns="http://www.w3.org/2000/svg">
<rect width="30" height="30" rx="6" fill="#7FA829"/>
<path d="M18.8375 25.25L11.4406 22.6344L6.40625 24.6313C6.0875 24.8 5.77344 24.7906 5.46406 24.6031C5.15469 24.4156 5 24.1344 5 23.7594V8.06562C5 7.82187 5.07031 7.60625 5.21094 7.41875C5.35156 7.23125 5.53438 7.09063 5.75937 6.99687L11.4406 5L18.8375 7.5875L23.8438 5.59062C24.1625 5.44062 24.4766 5.45469 24.7859 5.63281C25.0953 5.81094 25.25 6.0875 25.25 6.4625V22.3531C25.25 22.5594 25.1797 22.7375 25.0391 22.8875C24.8984 23.0375 24.725 23.15 24.5187 23.225L18.8375 25.25ZM17.8812 23.1406V8.9375L12.3687 7.08125V21.2844L17.8812 23.1406ZM19.5687 23.1406L23.5625 21.8188V7.41875L19.5687 8.9375V23.1406ZM6.6875 22.8031L10.6812 21.2844V7.08125L6.6875 8.40312V22.8031Z" fill="white" fill-opacity="0.2"/>
<mask id="mask0_1356_4739" style="mask-type:luminance" maskUnits="userSpaceOnUse" x="6" y="6" width="18" height="18">
<path d="M6.81299 6.81348H23.1867V23.1872H6.81299V6.81348Z" fill="white"/>
</mask>
<g mask="url(#mask0_1356_4739)">
<path d="M9.43791 6.81348C8.00502 6.81348 6.81299 7.93863 6.81299 9.43319C6.81299 9.79815 6.89441 10.2719 7.01764 10.605C7.7202 12.1149 8.42961 13.6281 9.13599 15.1385C9.18838 15.2507 9.30898 15.3278 9.4328 15.3278H14.0175C14.8395 15.3278 15.4911 15.9794 15.4911 16.8015C15.4911 17.6236 14.8395 18.2752 14.0175 18.2752H11.5613C10.2063 18.2752 9.1052 19.3763 9.1052 20.7313C9.1052 22.0863 10.2062 23.1875 11.5613 23.1875H20.2395C20.3633 23.1875 20.4839 23.1104 20.5363 22.9981C21.3335 21.2973 22.1664 19.6086 22.9565 17.9069C23.0909 17.549 23.1867 17.0418 23.1867 16.638C23.1867 14.975 21.8516 13.6906 20.2342 13.6906C18.6168 13.6906 17.292 14.9759 17.292 16.638C17.292 17.0422 17.3888 17.5499 17.5222 17.9069C18.2518 19.448 18.9887 20.9907 19.7225 22.5325H11.5611C10.5576 22.5325 9.75996 21.7349 9.75996 20.7314C9.75996 19.7278 10.5576 18.9303 11.5611 18.9303H14.0172C15.1908 18.9303 16.1458 17.9752 16.1458 16.8017C16.1458 15.6281 15.1908 14.6731 14.0172 14.6731H9.94931C10.5804 13.3163 11.2276 11.9643 11.8477 10.6052C11.9699 10.2732 12.0523 9.79869 12.0523 9.43341C12.0523 7.93969 10.8706 6.81369 9.43759 6.81369L9.43791 6.81348ZM9.43791 7.46846C10.5372 7.46846 11.3976 8.27682 11.3976 9.43337C11.3976 9.67551 11.3084 10.1696 11.2339 10.3748C10.6373 11.658 10.0336 12.9406 9.43274 14.2226C8.84605 12.9341 8.23862 11.6881 7.63161 10.3748C7.55696 10.1703 7.46784 9.67601 7.46784 9.43337C7.46784 8.27775 8.33849 7.46846 9.43781 7.46846H9.43791ZM9.43283 8.28713C8.80374 8.28713 8.2867 8.80417 8.2867 9.43326C8.2867 10.0624 8.80374 10.5794 9.43283 10.5794C10.0619 10.5794 10.5789 10.0624 10.5789 9.43326C10.5789 8.80417 10.0619 8.28713 9.43283 8.28713ZM9.43283 8.94212C9.70797 8.94212 9.92405 9.15819 9.92405 9.43335C9.92405 9.7085 9.70798 9.92457 9.43283 9.92457C9.15768 9.92457 8.9416 9.7085 8.9416 9.43335C8.9416 9.15819 9.15768 8.94212 9.43283 8.94212ZM20.2345 14.3456C21.5112 14.3456 22.5321 15.3194 22.5321 16.6379C22.5321 16.9176 22.4342 17.4257 22.3427 17.6715C21.6455 19.1456 20.9412 20.6192 20.2397 22.0923C19.5526 20.6126 18.8179 19.1207 18.1367 17.6715C18.0456 17.4249 17.9475 16.9169 17.9475 16.6378C17.9475 15.3184 18.958 14.3455 20.2346 14.3455L20.2345 14.3456ZM20.2397 15.1642C19.4297 15.1642 18.766 15.8278 18.766 16.6378C18.766 17.4478 19.4296 18.1115 20.2397 18.1115C21.0497 18.1115 21.7134 17.4479 21.7134 16.6378C21.7134 15.8279 21.0497 15.1642 20.2397 15.1642ZM20.2397 15.8191C20.6957 15.8191 21.0584 16.1818 21.0584 16.6378C21.0584 17.0938 20.6957 17.4565 20.2397 17.4565C19.7837 17.4565 19.421 17.0938 19.421 16.6378C19.421 16.1818 19.7837 15.8191 20.2397 15.8191Z" fill="white"/>
</g>
</svg>
